PathFileType	4	(X/Y/Z)	/home/nbianco/projects/addbio/data/HamnerRunning2013/Processed/subject08//results/MarkerData/run200.trc
DataRate	CameraRate	NumFrames	NumMarkers	Units	OrigDataRate	OrigDataStartFrame	OrigNumFrames
100	100	9	42	m	100	107	215
Frame#	Time	C7			CLAV			LACR			LASI			LCAL			LFAradius			LFAsuperior			LFAulna			LLEL			LMEL			LMT5			LPSI			LTB1			LTB2			LTB3			LTH1			LTH2			LTH3			LTOE			LUA1			LUA2			LUA3			RACR			RASI			RCAL			RFAradius			RFAsuperior			RFAulna			RLEL			RMEL			RMT5			RPSI			RTB1			RTB2			RTB3			RTH1			RTH2			RTH3			RTOE			RUA1			RUA2			RUA3		
		X1	Y1	Z1	X2	Y2	Z2	X3	Y3	Z3	X4	Y4	Z4	X5	Y5	Z5	X6	Y6	Z6	X7	Y7	Z7	X8	Y8	Z8	X9	Y9	Z9	X10	Y10	Z10	X11	Y11	Z11	X12	Y12	Z12	X13	Y13	Z13	X14	Y14	Z14	X15	Y15	Z15	X16	Y16	Z16	X17	Y17	Z17	X18	Y18	Z18	X19	Y19	Z19	X20	Y20	Z20	X21	Y21	Z21	X22	Y22	Z22	X23	Y23	Z23	X24	Y24	Z24	X25	Y25	Z25	X26	Y26	Z26	X27	Y27	Z27	X28	Y28	Z28	X29	Y29	Z29	X30	Y30	Z30	X31	Y31	Z31	X32	Y32	Z32	X33	Y33	Z33	X34	Y34	Z34	X35	Y35	Z35	X36	Y36	Z36	X37	Y37	Z37	X38	Y38	Z38	X39	Y39	Z39	X40	Y40	Z40	X41	Y41	Z41	X42	Y42	Z42

108	1.88	0.720125	1.61278	-0.478608	0.850463	1.53777	-0.44876	0.774442	1.59767	-0.628421	0.816155	1.06971	-0.603189	0.772317	0.126469	-0.559094	0.75013	1.24671	-0.690298	0.656142	1.30176	-0.805896	0.705225	1.20016	-0.710676	0.592248	1.40082	-0.848018	0.529869	1.39061	-0.801343	0.964053	0.0622099	-0.649514	0.635993	1.13858	-0.514887	0.891119	0.478404	-0.589556	0.834339	0.399194	-0.65338	0.888876	0.272323	-0.587825	0.759269	0.948882	-0.667618	0.8498	0.844387	-0.659493	0.79897	0.696924	-0.641708	1.00068	0.107601	-0.579218	0.693252	1.54961	-0.729684	0.607174	1.50257	-0.725541	0.628877	1.47335	-0.798703	0.774862	1.56657	-0.300681	0.815153	1.04887	-0.349396	0.284916	0.308137	-0.408041	0.903808	1.27824	-0.335096	0.749218	1.21851	-0.20942	0.900925	1.207	-0.325025	0.677878	1.24268	-0.177136	0.633869	1.22883	-0.248168	0.346742	0.11999	-0.29979	0.639586	1.1359	-0.43011	0.601985	0.436419	-0.365744	0.498405	0.39743	-0.318334	0.4555	0.301257	-0.37337	0.733991	0.916064	-0.293675	0.761442	0.77073	-0.31136	0.661627	0.684193	-0.319195	0.403469	0.108311	-0.378123	0.72164	1.45371	-0.218897	0.644015	1.38455	-0.240592	0.686195	1.34133	-0.191804
109	1.89	0.719789	1.60854	-0.481639	0.850113	1.53368	-0.450757	0.774865	1.59203	-0.631681	0.816992	1.06626	-0.606123	0.768255	0.124641	-0.558624	0.755727	1.24152	-0.69079	0.66196	1.29368	-0.807912	0.711937	1.19392	-0.711222	0.596796	1.39118	-0.851641	0.534181	1.38028	-0.805265	0.958676	0.0550611	-0.647217	0.635264	1.13347	-0.516017	0.889013	0.47362	-0.591375	0.831709	0.394319	-0.654321	0.886251	0.267471	-0.588649	0.758908	0.944364	-0.669324	0.850114	0.840075	-0.662549	0.79845	0.69251	-0.643897	0.996061	0.100206	-0.57708	0.694856	1.54228	-0.733611	0.609121	1.4945	-0.730079	0.632079	1.46443	-0.802556	0.77385	1.56308	-0.303011	0.815608	1.04591	-0.351593	0.282221	0.318666	-0.408072	0.900706	1.26933	-0.335442	0.744118	1.21465	-0.210394	0.895882	1.19853	-0.324344	0.67297	1.2405	-0.178756	0.629244	1.2271	-0.249643	0.341194	0.128947	-0.301293	0.639317	1.13113	-0.43156	0.606359	0.433031	-0.367442	0.501103	0.398969	-0.319437	0.453622	0.305129	-0.375265	0.737305	0.91144	-0.294696	0.767284	0.766673	-0.313289	0.669511	0.678217	-0.32043	0.395655	0.116025	-0.380618	0.71919	1.45119	-0.221087	0.641223	1.38268	-0.243158	0.682412	1.33911	-0.193759
110	1.9	0.719315	1.60344	-0.4846	0.849581	1.5285	-0.452572	0.77549	1.58525	-0.635057	0.817707	1.06179	-0.608457	0.759611	0.122997	-0.557481	0.761879	1.23509	-0.690998	0.668713	1.28412	-0.809905	0.719369	1.18639	-0.711552	0.602429	1.37998	-0.855565	0.539403	1.36846	-0.809677	0.947926	0.048939	-0.646236	0.634519	1.12708	-0.517236	0.886292	0.467347	-0.593282	0.827689	0.388368	-0.655379	0.880793	0.261208	-0.589136	0.759234	0.939169	-0.670679	0.850919	0.83562	-0.664374	0.797871	0.687222	-0.645785	0.986974	0.0912491	-0.575084	0.696961	1.53347	-0.737677	0.611554	1.48485	-0.734933	0.636115	1.45394	-0.806623	0.772547	1.55848	-0.30516	0.815899	1.04194	-0.353412	0.28131	0.328485	-0.40829	0.897466	1.25871	-0.335274	0.738369	1.20911	-0.211495	0.890393	1.18823	-0.324042	0.667657	1.23718	-0.180561	0.624239	1.22424	-0.251409	0.337759	0.137136	-0.303269	0.638505	1.12513	-0.432859	0.611726	0.429056	-0.368779	0.505092	0.399767	-0.320355	0.453315	0.308555	-0.377025	0.740217	0.906031	-0.295662	0.773264	0.761835	-0.314527	0.6779	0.67143	-0.321295	0.390223	0.123393	-0.383232	0.716533	1.44744	-0.223391	0.638123	1.37967	-0.245776	0.678303	1.33583	-0.195723
111	1.91	0.718711	1.59749	-0.487495	0.848886	1.52241	-0.454161	0.776207	1.57734	-0.638364	0.818241	1.05625	-0.610174	0.745125	0.120096	-0.555405	0.768574	1.22758	-0.690843	0.676379	1.27322	-0.811736	0.72751	1.17776	-0.711592	0.609129	1.36733	-0.859659	0.545571	1.35513	-0.814524	0.931802	0.0454359	-0.646685	0.633866	1.11968	-0.518645	0.882829	0.459608	-0.594509	0.822171	0.381538	-0.656013	0.871334	0.253753	-0.588395	0.760145	0.933125	-0.671559	0.851512	0.830548	-0.664254	0.797322	0.681144	-0.647222	0.972672	0.0830098	-0.573535	0.699533	1.5233	-0.7418	0.614517	1.47373	-0.74007	0.640968	1.44197	-0.810835	0.770808	1.55282	-0.307179	0.816032	1.03698	-0.354948	0.282264	0.337408	-0.408896	0.894121	1.24654	-0.334609	0.732077	1.20228	-0.212541	0.884382	1.17627	-0.323859	0.661987	1.23289	-0.182338	0.618719	1.22028	-0.253355	0.336103	0.144463	-0.305432	0.637316	1.11798	-0.434052	0.618111	0.424548	-0.369351	0.510372	0.3997	-0.321217	0.454593	0.311494	-0.378518	0.742819	0.89999	-0.296864	0.779293	0.756294	-0.315005	0.686647	0.663952	-0.321714	0.387307	0.129893	-0.385527	0.713672	1.44253	-0.225761	0.63469	1.37557	-0.2485	0.67386	1.33152	-0.19772
112	1.92	0.717972	1.59074	-0.490359	0.84818	1.51552	-0.455448	0.776922	1.56845	-0.641525	0.818625	1.04982	-0.611674	0.725086	0.114874	-0.552756	0.775807	1.21922	-0.690199	0.684944	1.26112	-0.813312	0.736315	1.16823	-0.711256	0.616884	1.3534	-0.863813	0.552747	1.34023	-0.819711	0.911852	0.04455	-0.647677	0.63309	1.11135	-0.520369	0.878383	0.450825	-0.594538	0.815084	0.374244	-0.655749	0.857623	0.245672	-0.586048	0.761417	0.926186	-0.672198	0.8516	0.824464	-0.662082	0.797111	0.674479	-0.648464	0.953707	0.0775001	-0.572323	0.702498	1.51182	-0.745915	0.618064	1.46122	-0.745414	0.646613	1.42863	-0.815152	0.768481	1.54624	-0.309103	0.816009	1.03112	-0.356373	0.285138	0.345309	-0.409949	0.890549	1.23285	-0.333534	0.725377	1.19462	-0.213343	0.877765	1.16286	-0.323253	0.656005	1.22783	-0.183988	0.612835	1.21543	-0.255354	0.33609	0.150972	-0.30746	0.636121	1.10958	-0.43555	0.625544	0.419713	-0.369153	0.516836	0.398996	-0.322002	0.457527	0.313908	-0.379727	0.74532	0.893357	-0.298276	0.785307	0.750278	-0.314734	0.695635	0.655891	-0.321751	0.386855	0.135428	-0.387262	0.7105	1.43647	-0.228165	0.630829	1.37039	-0.251348	0.669056	1.32617	-0.19985
113	1.93	0.717037	1.58324	-0.493255	0.847687	1.50788	-0.456341	0.777591	1.55884	-0.644629	0.818832	1.04268	-0.613307	0.701926	0.10799	-0.550256	0.783584	1.21022	-0.688996	0.694412	1.24804	-0.814633	0.745729	1.15803	-0.710486	0.625697	1.33844	-0.86795	0.561002	1.32386	-0.825096	0.890491	0.0449317	-0.648294	0.631874	1.10213	-0.522463	0.872717	0.441741	-0.593326	0.806804	0.367024	-0.654676	0.841071	0.237746	-0.582616	0.762668	0.918696	-0.673064	0.851245	0.817328	-0.658872	0.797061	0.667482	-0.649718	0.93229	0.0749705	-0.571317	0.705828	1.49905	-0.750046	0.622175	1.44725	-0.750862	0.65305	1.41404	-0.819537	0.765508	1.53905	-0.310908	0.815781	1.0245	-0.357832	0.290015	0.352085	-0.411408	0.88652	1.21762	-0.332094	0.718362	1.18638	-0.213829	0.870559	1.14819	-0.321852	0.649743	1.22221	-0.185611	0.606993	1.21	-0.257395	0.337807	0.156738	-0.309157	0.634925	1.09997	-0.43768	0.634028	0.414852	-0.368564	0.524357	0.398058	-0.322561	0.462227	0.315756	-0.380705	0.74791	0.886144	-0.29956	0.791265	0.744142	-0.313861	0.704772	0.647446	-0.321526	0.38872	0.140262	-0.388527	0.706807	1.42947	-0.23061	0.626444	1.36417	-0.254271	0.663898	1.31984	-0.202146
114	1.94	0.715846	1.57513	-0.496265	0.847506	1.49958	-0.456811	0.778232	1.54888	-0.647849	0.818714	1.03505	-0.615055	0.678746	0.101395	-0.548314	0.791938	1.20072	-0.687293	0.704811	1.23426	-0.815712	0.755742	1.14736	-0.709278	0.635603	1.32273	-0.871957	0.570388	1.3064	-0.830455	0.869575	0.0452531	-0.648316	0.630209	1.09255	-0.524804	0.865887	0.433081	-0.591279	0.798081	0.360319	-0.65338	0.823938	0.230617	-0.579046	0.763456	0.911325	-0.674418	0.850449	0.809479	-0.656385	0.796328	0.660421	-0.65083	0.910983	0.0740535	-0.570532	0.709589	1.48512	-0.754284	0.626762	1.43184	-0.756343	0.660327	1.39848	-0.8239	0.762016	1.53177	-0.31259	0.815217	1.01737	-0.359305	0.29687	0.357608	-0.413162	0.881871	1.20105	-0.330213	0.71102	1.17766	-0.214073	0.862862	1.13246	-0.319659	0.643233	1.21625	-0.187395	0.601462	1.20428	-0.25956	0.341554	0.16176	-0.310479	0.633413	1.08971	-0.440283	0.643573	0.410229	-0.368022	0.532919	0.397118	-0.322809	0.46875	0.31702	-0.381534	0.750575	0.878602	-0.300408	0.797118	0.738287	-0.312632	0.713986	0.638992	-0.321117	0.392842	0.144627	-0.389592	0.702415	1.42205	-0.233153	0.621583	1.35716	-0.257241	0.658446	1.31292	-0.204574
115	1.95	0.714464	1.56676	-0.499467	0.847485	1.49103	-0.456968	0.778938	1.53902	-0.65127	0.818111	1.02712	-0.616553	0.657277	0.0966697	-0.546682	0.800916	1.1909	-0.68522	0.716199	1.22022	-0.816421	0.76643	1.13638	-0.707651	0.646651	1.30661	-0.875599	0.580933	1.28841	-0.835454	0.849568	0.0451888	-0.648089	0.628411	1.08379	-0.52707	0.858282	0.425211	-0.588968	0.789367	0.354316	-0.652295	0.807738	0.224535	-0.575908	0.763407	0.904652	-0.676033	0.848932	0.801463	-0.655863	0.794102	0.653569	-0.651476	0.891021	0.0732393	-0.569981	0.713862	1.47056	-0.75858	0.631813	1.4154	-0.761803	0.668499	1.38243	-0.828031	0.758308	1.52491	-0.314263	0.814174	1.00995	-0.360532	0.30547	0.361732	-0.415044	0.876614	1.18359	-0.327795	0.703288	1.16872	-0.214224	0.854732	1.11601	-0.316862	0.636526	1.21031	-0.189438	0.596121	1.19856	-0.261901	0.347763	0.165908	-0.311483	0.631488	1.07991	-0.44284	0.654177	0.406012	-0.367664	0.542646	0.39608	-0.32284	0.477042	0.317714	-0.382287	0.752999	0.87132	-0.300794	0.802811	0.733039	-0.311285	0.723241	0.631052	-0.320531	0.399353	0.1484	-0.390617	0.697355	1.41502	-0.235872	0.616502	1.34999	-0.260371	0.652806	1.30608	-0.207142
116	1.96	0.713153	1.55881	-0.502855	0.847312	1.48292	-0.457083	0.779857	1.52961	-0.654764	0.816998	1.01912	-0.617342	0.63733	0.0940603	-0.54483	0.810562	1.18098	-0.682793	0.728643	1.20643	-0.81644	0.777913	1.12532	-0.705588	0.658858	1.29056	-0.878512	0.59262	1.27052	-0.839694	0.829932	0.0451504	-0.64794	0.626596	1.07708	-0.528862	0.850267	0.418106	-0.586807	0.780346	0.34903	-0.65133	0.792509	0.219422	-0.573169	0.762272	0.898835	-0.677398	0.846402	0.793894	-0.657076	0.790352	0.647186	-0.651572	0.871989	0.0720081	-0.569554	0.718583	1.4563	-0.762566	0.637518	1.39881	-0.767014	0.677507	1.36662	-0.831627	0.754724	1.51876	-0.316105	0.81263	1.00248	-0.361104	0.315443	0.364314	-0.41686	0.870854	1.16586	-0.324924	0.695223	1.16006	-0.214403	0.846122	1.09943	-0.313556	0.629721	1.20486	-0.191676	0.590647	1.19316	-0.264393	0.356779	0.168958	-0.312253	0.629358	1.07189	-0.444865	0.665772	0.402306	-0.367232	0.553642	0.394722	-0.322843	0.486959	0.317861	-0.383022	0.754732	0.864919	-0.300875	0.808329	0.728604	-0.309985	0.732561	0.624132	-0.319745	0.408456	0.151191	-0.391551	0.691951	1.40901	-0.238762	0.611537	1.34352	-0.263891	0.647087	1.29998	-0.209913
